<svg xmlns="http://www.w3.org/2000/svg" width="32" height="32" viewBox="0 0 32 32" fill="none">
  <rect width="32" height="32" rx="8" fill="#4f46e5"/>
  <g transform="translate(4 7)">
    <path d="M3 11h18a2 2 0 012 2v2a1 1 0 01-1 1H2a1 1 0 01-1-1v-2a2 2 0 012-2z" fill="#e0e7ff"/>
    <path d="M5.5 11l2.2-5.5A2 2 0 019.5 4h5a2 2 0 011.8 1.5L18.5 11H5.5z" fill="#fff"/>
    <path d="M9 7.5h6" stroke="#a5b4fc" stroke-width="1.2" stroke-linecap="round"/>
    <circle cx="6" cy="16" r="2" fill="#312e81"/><circle cx="6" cy="16" r=".8" fill="#e0e7ff"/>
    <circle cx="18" cy="16" r="2" fill="#312e81"/><circle cx="18" cy="16" r=".8" fill="#e0e7ff"/>
    <rect x="10" y="12.5" width="4" height="1.5" rx=".75" fill="#818cf8"/>
  </g>
</svg>
